<svg version="1.0" xmlns="http://www.w3.org/2000/svg" viewBox="0 0 512 512"><g transform="translate(0,512) scale(0.1,-0.1)" fill="#F00" stroke="none"><path d="M0 2560 l0 -2560 800 0 800 0 0 2560 0 2560 -800 0 -800 0 0 -2560z"/></g><g transform="translate(0,512) scale(0.1,-0.1)" fill="#0F0" stroke="none"><path d="M1600 2560 l0 -2560 960 0 960 0 0 2560 0 2560 -960 0 -960 0 0 -2560z"/></g><g transform="translate(0,512) scale(0.1,-0.1)" fill="#00F" stroke="none"><path d="M3520 2560 l0 -2560 800 0 800 0 0 2560 0 2560 -800 0 -800 0 0 -2560z"/></g></svg>