<svg version="1.0" xmlns="http://www.w3.org/2000/svg" viewBox="0 0 1024 1024">

<!-- Red -->
<g transform="translate(0,1024) scale(0.1,-0.1)" fill="#F00" stroke="none">
<path d="M0 5120 l0 -5120 1760 0 1760 0 0 5120 0 5120 -1760 0 -1760 0 0 -5120z"/>
</g>

<!-- Green -->
<g transform="translate(0,1024) scale(0.1,-0.1)" fill="#0F0" stroke="none">
<path d="M3520 5120 l0 -5120 1440 0 1440 0 0 5120 0 5120 -1440 0 -1440 0 0 -5120z"/>
</g>

<!-- Blue -->
<g transform="translate(0,1024) scale(0.1,-0.1)" fill="#00F" stroke="none">
<path d="M6400 5120 l0 -5120 1920 0 1920 0 0 5120 0 5120 -1920 0 -1920 0 0 -5120z"/>
</g>

<!-- Text -->
<g transform="translate(0,1024) scale(0.1,-0.1)" fill="#000" stroke="none" style="opacity: 0.8">
<path d="M1485 9575 c-79 -33 -154 -109 -183 -188 l-22 -58 2 -1822 3 -1822 26 -55 c33 -70 89 -126 159 -159 l55 -26 580 0 580 0 73 27 c105 38 176 83 252 158 75 76 120 147 158 252 l27 73 0 605 0 605 -26 72 c-33 90 -66 146 -130 223 l-50 60 43 50 c59 67 104 144 136 232 l27 73 0 605 0 605 -27 73 c-37 103 -82 174 -158 251 -75 76 -147 121 -252 159 l-73 27 -570 2 -570 3 -60 -25z m1067 -305 c105 -11 169 -37 225 -92 54 -53 82 -119 93 -221 13 -107 13 -848 0 -955 -11 -100 -38 -164 -92 -219 -53 -54 -119 -82 -221 -93 -45 -6 -279 -10 -520 -10 l-438 0 3 733 c3 692 4 734 22 770 25 50 66 78 129 87 75 11 696 11 799 0z m0 -1920 c105 -11 169 -37 225 -92 54 -53 82 -119 93 -221 13 -107 13 -848 0 -955 -11 -100 -38 -164 -92 -219 -91 -93 -179 -106 -683 -101 -327 3 -363 5 -398 22 -52 26 -77 65 -88 139 -5 34 -9 371 -9 750 l0 687 433 0 c237 0 471 -4 519 -10z"/>
<path d="M3840 7520 l0 -2080 160 0 160 0 2 1646 3 1647 289 -769 c159 -423 302 -804 318 -846 l30 -78 158 0 158 0 30 78 c16 42 159 423 318 846 l289 769 3 -1647 2 -1646 160 0 160 0 0 2080 0 2080 -159 0 -159 0 -24 -62 c-13 -35 -192 -512 -398 -1060 -206 -549 -377 -998 -380 -998 -3 0 -174 449 -380 998 -206 548 -385 1025 -398 1060 l-24 62 -159 0 -159 0 0 -2080z"/>
<path d="M6925 9575 c-79 -32 -154 -109 -183 -188 l-22 -58 0 -1944 0 -1945 160 0 160 0 0 960 0 959 703 3 702 3 73 27 c104 38 176 83 252 158 75 76 120 147 158 252 l27 73 0 605 0 605 -27 73 c-37 103 -82 174 -158 251 -75 76 -147 121 -252 159 l-73 27 -730 2 -730 3 -60 -25z m1387 -305 c105 -11 169 -37 225 -92 54 -53 82 -119 93 -221 13 -107 13 -848 0 -955 -11 -100 -38 -164 -92 -219 -53 -54 -119 -82 -221 -93 -45 -6 -351 -10 -680 -10 l-598 0 3 733 c3 692 4 734 22 770 25 50 66 78 129 87 75 11 1016 11 1119 0z"/>
<path d="M2560 4640 l0 -160 800 0 800 0 0 -1557 c0 -919 -4 -1592 -10 -1641 -11 -100 -38 -164 -92 -219 -84 -86 -172 -103 -538 -103 -366 0 -454 17 -538 103 -77 79 -101 180 -102 425 l0 112 -161 0 -161 0 4 -222 c4 -209 6 -228 31 -296 36 -104 82 -176 158 -252 77 -76 148 -121 251 -158 l73 -27 445 0 445 0 73 27 c105 38 176 83 252 158 75 76 120 147 158 252 l27 73 3 1823 2 1822 -960 0 -960 0 0 -160z"/>
<path d="M5645 4790 c-129 -26 -239 -86 -334 -181 -76 -76 -121 -147 -159 -251 l-27 -73 0 -605 0 -605 27 -73 c38 -105 83 -177 159 -252 77 -76 149 -121 251 -158 l73 -26 560 -7 c577 -6 594 -8 675 -49 50 -26 105 -87 130 -142 11 -26 25 -85 30 -130 13 -108 13 -848 0 -956 -11 -100 -38 -164 -92 -219 -53 -54 -119 -82 -221 -93 -106 -13 -848 -13 -954 0 -102 11 -168 39 -221 93 -77 79 -101 180 -102 425 l0 112 -161 0 -161 0 4 -222 c4 -209 6 -228 31 -296 36 -104 82 -176 158 -252 77 -76 148 -121 251 -158 l73 -27 605 0 605 0 73 27 c105 38 176 83 252 158 75 76 120 147 158 252 l27 73 0 605 0 605 -27 73 c-37 103 -82 174 -158 251 -76 76 -148 121 -252 159 l-73 26 -560 7 c-578 6 -594 7 -675 49 -50 26 -105 87 -130 143 -35 78 -42 215 -38 692 4 432 5 441 28 500 31 81 104 154 185 185 59 23 68 24 500 28 607 5 684 -4 782 -100 77 -76 103 -180 103 -420 l0 -118 161 0 161 0 -4 223 c-4 208 -6 227 -31 295 -36 102 -81 174 -157 251 -75 76 -147 121 -252 159 l-73 27 -580 2 c-319 0 -598 -2 -620 -7z"/>
</g>

</svg>
