<svg version="1.0" xmlns="http://www.w3.org/2000/svg" viewBox="0 0 5360 1024"><g transform="translate(0,1024) scale(0.1,-0.1)" fill="#000" stroke="none"><path d="M33895 9614 c-331 -50 -545 -148 -709 -325 -235 -253 -326 -576 -326 -1151 l0 -248 -420 0 -420 0 0 -230 0 -230 420 0 420 0 0 -800 0 -800 265 0 265 0 0 800 0 800 540 0 540 0 0 230 0 230 -541 0 -542 0 6 293 c6 322 16 403 69 547 76 206 209 332 413 391 71 20 102 23 270 23 105 0 250 -6 323 -13 73 -8 135 -11 138 -8 5 5 54 387 54 428 0 25 -2 25 -127 43 -123 18 -561 31 -638 20z"/><path d="M36895 9614 c-331 -50 -545 -148 -709 -325 -235 -253 -326 -576 -326 -1151 l0 -248 -420 0 -420 0 0 -230 0 -230 420 0 420 0 0 -800 0 -800 265 0 265 0 0 800 0 800 540 0 540 0 0 230 0 230 -541 0 -542 0 6 293 c6 322 16 403 69 547 76 206 209 332 413 391 71 20 102 23 270 23 105 0 250 -6 323 -13 73 -8 135 -11 138 -8 5 5 54 387 54 428 0 25 -2 25 -127 43 -123 18 -561 31 -638 20z"/><path d="M26260 7702 l0 -1878 183 -18 c232 -24 658 -32 798 -17 310 35 552 116 759 254 415 277 618 736 596 1346 -5 154 -11 205 -37 318 -95 412 -334 667 -724 773 -116 32 -127 33 -320 34 -222 1 -275 -8 -395 -66 -146 -71 -233 -194 -264 -373 -11 -65 -14 -70 -39 -73 l-27 -3 0 790 0 791 -265 0 -265 0 0 -1878z m1386 347 c203 -53 352 -222 404 -459 36 -164 29 -436 -14 -628 -82 -358 -305 -601 -636 -694 -100 -29 -117 -30 -358 -35 l-254 -6 5 629 c4 582 6 635 24 714 64 272 200 420 441 480 110 27 283 27 388 -1z"/><path d="M51135 9410 c-260 -29 -500 -145 -644 -310 -117 -134 -192 -328 -210 -541 -35 -418 121 -713 504 -956 107 -67 153 -90 550 -270 366 -166 442 -209 509 -286 88 -100 122 -206 113 -352 -9 -140 -50 -234 -132 -307 -130 -114 -302 -155 -616 -145 -277 8 -516 60 -824 177 -75 29 -138 51 -140 48 -9 -9 -66 -491 -58 -498 19 -17 247 -92 363 -119 235 -55 354 -66 685 -66 243 0 318 4 395 18 204 38 340 83 460 153 93 54 229 189 283 283 146 251 161 657 35 917 -45 91 -99 162 -190 250 -182 175 -291 240 -847 500 -293 138 -373 186 -453 273 -73 78 -100 147 -105 271 -13 268 113 440 364 496 120 26 317 16 450 -25 167 -52 306 -125 460 -245 l70 -54 177 177 177 177 -53 45 c-267 230 -531 348 -868 389 -95 11 -349 11 -455 0z"/><path d="M11300 7605 l0 -1775 260 0 260 0 0 695 0 695 690 0 690 0 0 235 0 235 -690 0 -690 0 0 605 0 605 915 0 915 0 0 240 0 240 -1175 0 -1175 0 0 -1775z"/><path d="M48080 9140 l0 -240 456 0 455 0 -4 -1032 c-3 -1008 -4 -1035 -24 -1118 -85 -345 -309 -520 -664 -520 -422 0 -671 249 -704 703 l-7 87 -259 0 c-142 0 -259 -4 -259 -8 0 -4 5 -69 10 -143 22 -275 101 -502 239 -679 159 -206 339 -316 630 -383 85 -19 124 -22 336 -22 257 0 319 8 484 62 324 104 561 345 669 678 69 212 66 142 70 1568 l3 1287 -716 0 -715 0 0 -240z"/><path d="M15805 8514 c-11 -3 -51 -12 -90 -21 -127 -29 -248 -103 -324 -200 -81 -101 -142 -266 -156 -419 l-7 -74 -32 0 -32 0 -45 338 -44 337 -462 3 -463 2 0 -235 0 -235 245 0 245 0 0 -860 0 -860 -295 0 -295 0 0 -230 0 -230 885 0 885 0 0 230 0 230 -327 0 -326 0 6 443 c5 366 10 465 26 578 58 398 192 624 424 720 61 25 90 31 187 36 101 5 122 3 171 -16 144 -55 207 -175 225 -428 l7 -93 260 0 260 0 -6 143 c-20 462 -180 724 -497 814 -70 20 -114 25 -245 28 -88 2 -169 2 -180 -1z"/><path d="M20975 8506 c-164 -40 -261 -147 -290 -318 -4 -29 -11 -38 -25 -38 -11 0 -20 6 -21 13 0 6 -8 80 -17 162 l-17 150 -237 3 -238 2 0 -1325 0 -1325 264 0 265 0 4 1023 c3 1086 2 1061 50 1153 22 42 77 89 123 104 53 18 164 8 206 -18 19 -12 45 -40 58 -64 l25 -43 3 -1077 3 -1078 224 0 225 0 0 1003 c0 1094 0 1093 57 1187 20 32 43 53 83 73 49 26 63 28 128 24 52 -3 81 -10 100 -24 35 -26 69 -77 82 -122 6 -23 10 -414 10 -1088 l0 -1053 265 0 265 0 0 1108 c0 1185 0 1185 -50 1312 -72 183 -221 270 -461 270 -161 0 -248 -31 -334 -117 -53 -53 -101 -143 -111 -210 -5 -35 -10 -43 -28 -43 -17 0 -25 12 -44 71 -67 205 -199 300 -416 298 -56 0 -124 -6 -151 -13z"/><path d="M24115 8504 c-224 -39 -412 -129 -562 -268 -86 -79 -197 -247 -255 -385 -126 -297 -161 -751 -86 -1101 97 -455 386 -770 828 -902 168 -50 245 -59 520 -65 277 -5 458 6 693 44 108 17 109 17 104 43 -3 14 -17 117 -32 230 -16 113 -29 206 -30 208 -1 1 -69 -9 -151 -22 -342 -56 -605 -59 -818 -9 -262 61 -455 203 -561 413 -31 61 -74 189 -75 223 0 4 402 7 894 7 l894 0 7 148 c23 447 -54 799 -228 1044 -157 223 -355 342 -651 393 -112 19 -380 19 -491 -1z m460 -474 c255 -73 403 -288 430 -627 l7 -83 -671 0 -671 0 0 24 c0 44 39 210 65 281 91 242 279 394 525 425 91 12 237 2 315 -20z"/><path d="M39115 8504 c-224 -39 -412 -129 -562 -268 -86 -79 -197 -247 -255 -385 -126 -297 -161 -751 -86 -1101 97 -455 386 -770 828 -902 168 -50 245 -59 520 -65 277 -5 458 6 693 44 108 17 109 17 104 43 -3 14 -17 117 -32 230 -16 113 -29 206 -30 208 -1 1 -69 -9 -151 -22 -342 -56 -605 -59 -818 -9 -262 61 -455 203 -561 413 -31 61 -74 189 -75 223 0 4 402 7 894 7 l894 0 7 148 c23 447 -54 799 -228 1044 -157 223 -355 342 -651 393 -112 19 -380 19 -491 -1z m460 -474 c255 -73 403 -288 430 -627 l7 -83 -671 0 -671 0 0 24 c0 44 39 210 65 281 91 242 279 394 525 425 91 12 237 2 315 -20z"/><path d="M42805 8514 c-11 -3 -51 -12 -90 -21 -127 -29 -248 -103 -324 -200 -81 -101 -142 -266 -156 -419 l-7 -74 -32 0 -32 0 -45 338 -44 337 -462 3 -463 2 0 -235 0 -235 245 0 245 0 0 -860 0 -860 -295 0 -295 0 0 -230 0 -230 885 0 885 0 0 230 0 230 -327 0 -326 0 6 443 c5 366 10 465 26 578 58 398 192 624 424 720 61 25 90 31 187 36 101 5 122 3 171 -16 144 -55 207 -175 225 -428 l7 -93 260 0 260 0 -6 143 c-20 462 -180 724 -497 814 -70 20 -114 25 -245 28 -88 2 -169 2 -180 -1z"/><path d="M17470 8499 c0 -3 -11 -108 -25 -233 -14 -126 -24 -230 -22 -232 1 -2 160 -8 352 -14 193 -6 373 -13 400 -16 241 -25 395 -82 495 -183 89 -90 120 -179 120 -349 l0 -104 -32 6 c-114 20 -263 30 -468 29 -209 -1 -251 -4 -376 -27 -412 -76 -671 -264 -775 -562 -30 -86 -31 -95 -33 -264 -1 -156 1 -184 22 -255 75 -257 264 -423 557 -491 65 -16 119 -19 290 -18 205 0 213 1 329 33 65 17 142 44 170 58 191 96 301 241 337 443 11 63 15 70 35 70 30 0 31 -4 44 -324 5 -143 12 -261 13 -263 2 -1 193 3 425 9 l422 12 0 212 0 212 -27 5 c-16 3 -117 15 -225 28 l-198 23 0 560 c0 311 -5 612 -11 676 -23 254 -102 445 -249 602 -87 93 -153 142 -270 199 -139 68 -301 110 -505 133 -119 14 -795 34 -795 25z m1298 -1534 c21 -7 22 -11 22 -144 0 -118 -4 -145 -24 -204 -33 -91 -75 -154 -152 -226 -257 -241 -816 -258 -960 -29 -40 64 -55 117 -55 202 -1 224 144 353 451 405 62 11 683 7 718 -4z"/><path d="M29223 7503 l4 -978 25 -100 c83 -329 265 -529 558 -612 109 -30 345 -43 442 -23 255 52 443 227 517 478 19 62 25 72 45 72 22 0 23 -3 35 -167 6 -93 14 -215 18 -272 l6 -104 136 6 c75 4 265 10 424 13 l287 7 0 212 c0 212 0 213 -22 218 -13 3 -94 16 -180 28 l-158 23 0 1088 0 1088 -264 0 -265 0 -4 -827 c-4 -710 -7 -839 -20 -907 -35 -168 -83 -270 -169 -352 -106 -102 -208 -137 -393 -138 -97 -1 -134 4 -190 21 -164 51 -267 171 -294 343 -7 42 -11 387 -11 963 l0 897 -266 0 -265 0 4 -977z"/></g><g transform="translate(0,1024) scale(0.1,-0.1)" fill="#000" stroke="none"><path d="M10240 2555 l0 -2555 21680 0 21680 0 0 2555 0 2555 -21680 0 -21680 0 0 -2555z"/></g><g transform="translate(0,1024) scale(0.1,-0.1)" fill="#00F" stroke="none"><path d="M7030 5120 l0 -5120 1605 0 1605 0 0 5120 0 5120 -1605 0 -1605 0 0 -5120z"/></g><g transform="translate(0,1024) scale(0.1,-0.1)" fill="#0F0" stroke="none"><path d="M3210 5120 l0 -5120 1910 0 1910 0 0 5120 0 5120 -1910 0 -1910 0 0 -5120z"/></g><g transform="translate(0,1024) scale(0.1,-0.1)" fill="#F00" stroke="none"><path d="M0 5120 l0 -5120 1605 0 1605 0 0 5120 0 5120 -1605 0 -1605 0 0 -5120z"/></g></svg>