<svg version="1.0" viewBox="0 0 5360 1024" xmlns="http://www.w3.org/2000/svg"><style type="text/css">.st0{fill:#0000FF}.st1{fill:#00FF00}.st2{fill:#FF0000}.st3{fill:#FFFFFF}</style><g transform="translate(0 1024) scale(.1 -.1)"><path d="m10240 2555v-2555h43360v5110h-43360v-2555z"/></g><g transform="translate(0 1024) scale(.1 -.1)"><path class="st0" d="m7030 5120v-5120h3210v10240h-3210v-5120z"/></g><g transform="translate(0 1024) scale(.1 -.1)"><path class="st1" d="m3210 5120v-5120h3820v10240h-3820v-5120z"/></g><g transform="translate(0 1024) scale(.1 -.1)"><path class="st2" d="m0 5120v-5120h3210v10240h-3210v-5120z"/></g><path class="st3" d="m1024 256.5v256.5h4336v-513h-4336v256.5z"/><g transform="translate(0 1024) scale(.1 -.1)"><path d="m33895 9614c-331-50-545-148-709-325-235-253-326-576-326-1151v-248h-840v-460h840v-1600h530v1600h1080v460h-1083l6 293c6 322 16 403 69 547 76 206 209 332 413 391 71 20 102 23 270 23 105 0 250-6 323-13 73-8 135-11 138-8 5 5 54 387 54 428 0 25-2 25-127 43-123 18-561 31-638 20z"/><path d="m36895 9614c-331-50-545-148-709-325-235-253-326-576-326-1151v-248h-840v-460h840v-1600h530v1600h1080v460h-1083l6 293c6 322 16 403 69 547 76 206 209 332 413 391 71 20 102 23 270 23 105 0 250-6 323-13 73-8 135-11 138-8 5 5 54 387 54 428 0 25-2 25-127 43-123 18-561 31-638 20z"/><path d="m26260 7702v-1878l183-18c232-24 658-32 798-17 310 35 552 116 759 254 415 277 618 736 596 1346-5 154-11 205-37 318-95 412-334 667-724 773-116 32-127 33-320 34-222 1-275-8-395-66-146-71-233-194-264-373-11-65-14-70-39-73l-27-3v1581h-530v-1878zm1386 347c203-53 352-222 404-459 36-164 29-436-14-628-82-358-305-601-636-694-100-29-117-30-358-35l-254-6 5 629c4 582 6 635 24 714 64 272 200 420 441 480 110 27 283 27 388-1z"/><path d="m51135 9410c-260-29-500-145-644-310-117-134-192-328-210-541-35-418 121-713 504-956 107-67 153-90 550-270 366-166 442-209 509-286 88-100 122-206 113-352-9-140-50-234-132-307-130-114-302-155-616-145-277 8-516 60-824 177-75 29-138 51-140 48-9-9-66-491-58-498 19-17 247-92 363-119 235-55 354-66 685-66 243 0 318 4 395 18 204 38 340 83 460 153 93 54 229 189 283 283 146 251 161 657 35 917-45 91-99 162-190 250-182 175-291 240-847 500-293 138-373 186-453 273-73 78-100 147-105 271-13 268 113 440 364 496 120 26 317 16 450-25 167-52 306-125 460-245l70-54 354 354-53 45c-267 230-531 348-868 389-95 11-349 11-455 0z"/><path d="m11300 7605v-1775h520v1390h1380v470h-1380v1210h1830v480h-2350v-1775z"/><path d="m48080 9140v-240h911l-4-1032c-3-1008-4-1035-24-1118-85-345-309-520-664-520-422 0-671 249-704 703l-7 87h-259c-142 0-259-4-259-8s5-69 10-143c22-275 101-502 239-679 159-206 339-316 630-383 85-19 124-22 336-22 257 0 319 8 484 62 324 104 561 345 669 678 69 212 66 142 70 1568l3 1287h-1431v-240z"/><path d="m15805 8514c-11-3-51-12-90-21-127-29-248-103-324-200-81-101-142-266-156-419l-7-74h-64l-45 338-44 337-462 3-463 2v-470h490v-1720h-590v-460h1770v460h-653l6 443c5 366 10 465 26 578 58 398 192 624 424 720 61 25 90 31 187 36 101 5 122 3 171-16 144-55 207-175 225-428l7-93h520l-6 143c-20 462-180 724-497 814-70 20-114 25-245 28-88 2-169 2-180-1z"/><path d="m20975 8506c-164-40-261-147-290-318-4-29-11-38-25-38-11 0-20 6-21 13 0 6-8 80-17 162l-17 150-237 3-238 2v-2650h529l4 1023c3 1086 2 1061 50 1153 22 42 77 89 123 104 53 18 164 8 206-18 19-12 45-40 58-64l25-43 3-1077 3-1078h449v1003c0 1094 0 1093 57 1187 20 32 43 53 83 73 49 26 63 28 128 24 52-3 81-10 100-24 35-26 69-77 82-122 6-23 10-414 10-1088v-1053h530v1108c0 1185 0 1185-50 1312-72 183-221 270-461 270-161 0-248-31-334-117-53-53-101-143-111-210-5-35-10-43-28-43-17 0-25 12-44 71-67 205-199 300-416 298-56 0-124-6-151-13z"/><path d="m24115 8504c-224-39-412-129-562-268-86-79-197-247-255-385-126-297-161-751-86-1101 97-455 386-770 828-902 168-50 245-59 520-65 277-5 458 6 693 44 108 17 109 17 104 43-3 14-17 117-32 230-16 113-29 206-30 208-1 1-69-9-151-22-342-56-605-59-818-9-262 61-455 203-561 413-31 61-74 189-75 223 0 4 402 7 894 7h894l7 148c23 447-54 799-228 1044-157 223-355 342-651 393-112 19-380 19-491-1zm460-474c255-73 403-288 430-627l7-83h-1342v24c0 44 39 210 65 281 91 242 279 394 525 425 91 12 237 2 315-20z"/><path d="m39115 8504c-224-39-412-129-562-268-86-79-197-247-255-385-126-297-161-751-86-1101 97-455 386-770 828-902 168-50 245-59 520-65 277-5 458 6 693 44 108 17 109 17 104 43-3 14-17 117-32 230-16 113-29 206-30 208-1 1-69-9-151-22-342-56-605-59-818-9-262 61-455 203-561 413-31 61-74 189-75 223 0 4 402 7 894 7h894l7 148c23 447-54 799-228 1044-157 223-355 342-651 393-112 19-380 19-491-1zm460-474c255-73 403-288 430-627l7-83h-1342v24c0 44 39 210 65 281 91 242 279 394 525 425 91 12 237 2 315-20z"/><path d="m42805 8514c-11-3-51-12-90-21-127-29-248-103-324-200-81-101-142-266-156-419l-7-74h-64l-45 338-44 337-462 3-463 2v-470h490v-1720h-590v-460h1770v460h-653l6 443c5 366 10 465 26 578 58 398 192 624 424 720 61 25 90 31 187 36 101 5 122 3 171-16 144-55 207-175 225-428l7-93h520l-6 143c-20 462-180 724-497 814-70 20-114 25-245 28-88 2-169 2-180-1z"/><path d="m17470 8499c0-3-11-108-25-233-14-126-24-230-22-232 1-2 160-8 352-14 193-6 373-13 400-16 241-25 395-82 495-183 89-90 120-179 120-349v-104l-32 6c-114 20-263 30-468 29-209-1-251-4-376-27-412-76-671-264-775-562-30-86-31-95-33-264-1-156 1-184 22-255 75-257 264-423 557-491 65-16 119-19 290-18 205 0 213 1 329 33 65 17 142 44 170 58 191 96 301 241 337 443 11 63 15 70 35 70 30 0 31-4 44-324 5-143 12-261 13-263 2-1 193 3 425 9l422 12v424l-27 5c-16 3-117 15-225 28l-198 23v560c0 311-5 612-11 676-23 254-102 445-249 602-87 93-153 142-270 199-139 68-301 110-505 133-119 14-795 34-795 25zm1298-1534c21-7 22-11 22-144 0-118-4-145-24-204-33-91-75-154-152-226-257-241-816-258-960-29-40 64-55 117-55 202-1 224 144 353 451 405 62 11 683 7 718-4z"/><path d="m29223 7503 4-978 25-100c83-329 265-529 558-612 109-30 345-43 442-23 255 52 443 227 517 478 19 62 25 72 45 72 22 0 23-3 35-167 6-93 14-215 18-272l6-104 136 6c75 4 265 10 424 13l287 7v212c0 212 0 213-22 218-13 3-94 16-180 28l-158 23v2176h-529l-4-827c-4-710-7-839-20-907-35-168-83-270-169-352-106-102-208-137-393-138-97-1-134 4-190 21-164 51-267 171-294 343-7 42-11 387-11 963v897h-531l4-977z"/></g></svg>